<?xml version="1.0" standalone="no"?>
<!DOCTYPE svg PUBLIC "-//W3C//DTD SVG 20010904//EN"
 "http://www.w3.org/TR/2001/REC-SVG-20010904/DTD/svg10.dtd">
<svg version="1.0" xmlns="http://www.w3.org/2000/svg"
 width="512.000000pt" height="512.000000pt" viewBox="0 0 512.000000 512.000000"
 preserveAspectRatio="xMidYMid meet">
<metadata>
Created by potrace 1.11, written by Peter Selinger 2001-2013
</metadata>
<g transform="translate(0.000000,512.000000) scale(0.100000,-0.100000)"
fill="#000000" stroke="none">
<path d="M0 2560 l0 -2560 400 0 c397 0 400 0 400 21 0 11 21 100 46 197 58
218 59 227 79 387 21 168 66 344 107 420 61 114 163 193 322 251 82 29 125 40
276 64 242 40 368 90 454 178 28 29 41 53 47 88 5 26 11 49 13 51 2 3 21 0 42
-6 72 -20 43 -4 -90 48 -139 54 -205 92 -293 168 -90 76 -120 120 -128 187
l-8 59 34 -24 c19 -13 36 -27 39 -30 3 -3 32 -18 65 -34 33 -16 73 -40 89 -54
l30 -26 -18 28 c-10 16 -43 54 -75 85 -54 54 -119 144 -135 186 -4 11 -2 22 5
27 9 5 8 11 -4 23 -8 9 -20 16 -26 16 -41 0 32 -141 115 -225 62 -62 73 -86
23 -46 -13 10 -42 26 -64 37 -37 17 -146 118 -143 133 1 3 -9 29 -21 56 -29
64 -67 176 -81 240 -17 75 -32 258 -31 370 1 55 -7 165 -18 245 -53 392 -54
412 -55 690 -1 151 2 286 6 300 4 14 3 32 -2 40 -8 12 -18 6 -55 -33 -24 -26
-52 -62 -61 -80 -9 -17 -22 -39 -28 -47 -7 -8 -25 -45 -40 -82 -16 -38 -32
-68 -36 -68 -7 0 -18 25 -34 73 -11 34 33 172 93 298 77 159 110 206 222 316
186 184 295 251 524 326 180 59 209 65 383 88 175 23 391 23 492 1 25 -6 76
-15 114 -22 78 -13 210 -54 243 -76 13 -8 23 -12 23 -9 0 3 17 -5 38 -17 20
-13 58 -34 85 -48 29 -15 45 -30 42 -38 -3 -7 0 -10 6 -7 11 7 51 -16 83 -49
64 -64 75 -70 93 -53 18 15 22 17 43 17 6 0 10 5 10 11 0 8 -5 8 -15 -1 -13
-11 -15 -8 -15 13 0 14 5 29 10 32 10 6 8 33 -5 78 -5 14 -4 19 3 12 18 -18
33 -81 31 -133 -1 -28 -6 -49 -10 -46 -5 2 -3 -9 3 -26 l11 -32 27 30 c20 23
39 31 79 37 59 8 80 1 26 -9 -19 -4 -35 -11 -35 -15 0 -5 -11 -12 -24 -15 -45
-11 -43 -43 7 -87 59 -51 151 -174 178 -236 11 -26 27 -61 34 -78 35 -75 88
-339 80 -394 -25 -163 -37 -194 -48 -128 -13 73 -20 97 -27 97 -4 0 -11 11
-14 25 -9 35 -55 133 -84 178 -35 52 -56 50 -48 -5 3 -24 9 -65 13 -93 8 -50
6 -582 -1 -685 -11 -143 -27 -250 -45 -302 -32 -92 -120 -267 -154 -306 -21
-24 -31 -62 -17 -62 6 0 31 16 54 35 24 19 47 35 52 35 5 1 31 23 59 50 27 27
53 46 58 43 11 -7 1 -111 -20 -208 -8 -38 -16 -95 -18 -125 -1 -30 -7 -66 -12
-80 -10 -23 -41 -93 -64 -145 -5 -11 -24 -58 -43 -105 -19 -47 -38 -83 -43
-80 -4 3 -7 71 -6 153 2 81 -1 147 -5 147 -10 0 -52 -99 -52 -122 0 -9 -4 -19
-9 -22 -5 -3 -12 -34 -16 -68 -8 -79 -34 -224 -45 -252 -8 -20 -8 -20 -14 4
-19 82 -52 300 -61 402 -4 43 -11 75 -16 72 -5 -3 -9 -47 -9 -99 0 -83 -11
-139 -31 -155 -3 -3 -8 -16 -11 -30 -3 -14 -9 -33 -13 -42 -4 -11 -3 -18 4
-18 7 0 24 27 39 61 l27 60 12 -33 c29 -83 13 -108 -127 -187 -116 -67 -178
-94 -295 -131 -55 -18 -138 -51 -185 -73 -80 -39 -90 -42 -170 -42 -72 0 -96
5 -160 32 -79 33 -177 59 -187 50 -3 -3 21 -13 53 -22 33 -9 79 -24 104 -35
99 -41 133 -50 185 -50 64 0 145 26 214 68 26 17 74 36 107 43 32 7 71 18 86
26 47 23 58 18 58 -29 0 -67 19 -120 56 -155 77 -72 279 -147 560 -206 211
-45 291 -82 383 -174 119 -120 183 -284 211 -541 6 -56 18 -121 26 -145 43
-117 94 -327 94 -382 l0 -25 345 0 345 0 0 1135 0 1135 -22 0 -23 1 23 18 22
19 0 726 c0 713 0 726 -20 746 -11 11 -20 24 -20 30 0 6 -3 10 -8 10 -9 0 -52
93 -52 114 0 9 -6 16 -13 16 -7 0 -19 8 -28 18 -8 9 -36 33 -62 52 -25 19 -45
40 -43 46 3 7 -11 14 -30 17 -19 3 -57 22 -83 41 -27 20 -59 36 -71 36 -13 0
-28 7 -35 16 -10 15 -13 15 -29 -1 -14 -14 -14 -20 -4 -33 7 -8 13 -27 13 -41
0 -20 6 -27 25 -29 80 -11 185 -67 201 -109 5 -13 15 -23 23 -23 15 0 26 -21
26 -51 0 -11 7 -19 16 -19 16 0 74 -55 74 -71 0 -5 5 -9 10 -9 6 0 10 -6 10
-14 0 -7 7 -19 15 -26 8 -7 15 -16 15 -21 0 -10 -138 -79 -158 -79 -15 0 -69
28 -89 46 -15 14 -80 27 -93 19 -6 -3 -10 -13 -10 -21 0 -8 -5 -14 -11 -14 -6
0 -9 7 -5 15 4 12 -4 15 -39 15 -25 0 -45 5 -45 10 0 6 -22 10 -48 10 -27 0
-57 6 -68 15 -10 8 -31 15 -46 15 -15 0 -33 7 -42 15 -8 8 -17 15 -20 15 -6 0
-56 49 -56 55 0 3 7 5 15 5 33 0 40 84 8 103 -19 11 -17 77 2 77 19 0 19 13
-1 51 -8 17 -17 44 -19 61 -2 16 -7 33 -11 37 -4 3 -4 -2 -1 -11 4 -10 2 -18
-3 -18 -6 0 -10 -7 -10 -15 0 -8 -4 -15 -10 -15 -5 0 -10 -12 -10 -26 0 -17
-4 -24 -12 -21 -10 3 -12 -8 -9 -41 2 -31 0 -42 -8 -38 -6 4 -11 13 -11 21 0
7 -7 15 -15 19 -11 4 -13 11 -6 28 4 13 5 32 1 42 -4 12 1 40 12 68 10 27 18
61 18 78 0 16 5 32 10 35 15 10 12 43 -7 65 -13 14 -20 17 -30 8 -9 -7 -17 -7
-28 2 -10 8 -34 10 -80 5 -45 -5 -65 -4 -65 4 0 6 -6 11 -14 11 -9 0 -12 -7
-9 -21 4 -15 0 -22 -16 -26 -11 -3 -21 -9 -21 -14 0 -4 -9 -6 -20 -4 -11 2
-20 -2 -20 -8 0 -7 -4 -6 -10 3 -5 8 -12 11 -16 7 -7 -6 -63 66 -92 119 -7 13
-17 24 -23 24 -5 0 -8 3 -8 8 1 4 1 26 0 50 -1 40 -3 43 -23 37 -22 -6 -22 -6
-4 9 11 9 30 17 43 17 35 2 41 3 49 11 4 4 13 0 20 -10 10 -12 13 -13 14 -3 0
8 6 11 16 7 11 -4 14 -1 12 11 -6 32 -57 48 -152 48 -81 0 -89 2 -92 20 -11
80 -18 105 -44 147 -17 27 -30 52 -30 57 0 14 -32 23 -43 12 -6 -6 -5 -23 3
-46 7 -20 10 -45 7 -56 -3 -11 0 -19 6 -19 7 0 5 -5 -3 -10 -10 -6 -11 -10 -2
-10 6 0 12 -10 11 -22 0 -22 -1 -22 -9 -3 -5 11 -9 14 -9 7 -1 -7 -5 -11 -11
-7 -5 3 -6 13 -3 21 3 9 0 20 -8 25 -11 7 -12 12 -1 29 20 33 14 50 -18 57
-33 6 -46 18 -30 28 5 3 9 21 9 38 -1 24 -3 26 -6 9 -2 -12 -9 -20 -14 -17 -5
4 -9 -5 -9 -18 0 -22 -23 -43 -42 -39 -5 1 -8 -3 -8 -10 0 -6 -6 -4 -13 5 -8
12 -23 17 -46 15 -31 -3 -35 0 -36 25 -1 15 3 27 9 27 6 0 11 14 12 30 1 18
11 40 23 51 27 25 28 65 1 72 -11 3 -20 10 -20 15 0 6 9 14 20 17 11 3 20 11
20 17 0 16 -219 5 -250 -12 -25 -14 -24 -14 26 -25 28 -5 59 -16 67 -23 15
-12 14 -17 -6 -50 -13 -21 -30 -50 -39 -67 -20 -35 -31 -36 -143 -6 -44 11
-151 32 -239 45 -115 18 -161 30 -170 42 -17 23 -162 26 -176 4 -8 -13 -13
-13 -37 0 -37 21 -39 41 -7 73 l27 27 -86 0 c-91 0 -110 -9 -83 -39 16 -18 12
-56 -4 -46 -5 3 -16 2 -26 -2 -16 -6 -16 -7 2 -15 14 -6 10 -7 -14 -5 -22 3
-36 -1 -39 -10 -3 -7 -14 -13 -25 -13 -12 0 -17 -4 -12 -12 5 -7 3 -8 -5 -3
-18 10 -63 -16 -56 -33 3 -9 -1 -12 -15 -8 -11 3 -29 9 -40 12 -26 7 -60 -4
-60 -19 0 -7 -8 -20 -18 -28 -15 -13 -29 -14 -83 -6 -35 5 -114 10 -174 12
-99 1 -114 4 -150 27 -40 25 -85 71 -85 86 0 4 21 14 48 21 26 8 76 29 112 47
l65 33 -852 1 -853 0 0 -2560z m2337 2444 c-3 -3 -12 -4 -19 -1 -8 3 -5 6 6 6
11 1 17 -2 13 -5z m103 -3 c0 -6 -4 -12 -8 -15 -5 -3 -9 1 -9 9 0 8 4 15 9 15
4 0 8 -4 8 -9z m-2390 -56 c0 -8 -2 -15 -4 -15 -2 0 -6 7 -10 15 -3 8 -1 15 4
15 6 0 10 -7 10 -15z m475 -5 c25 -28 34 -150 11 -169 -11 -10 -16 -10 -16 -2
0 7 -4 9 -10 6 -5 -3 -10 3 -10 14 0 11 -4 22 -9 25 -12 8 -24 107 -15 129 8
23 27 22 49 -3z m315 5 c10 -12 10 -15 -3 -15 -8 0 -20 7 -27 15 -10 12 -10
15 3 15 8 0 20 -7 27 -15z m30 -35 c0 -5 -10 -10 -22 -9 -22 0 -22 1 -3 9 11
5 21 9 23 9 1 1 2 -3 2 -9z m590 -50 c14 -11 33 -20 42 -20 9 0 41 -22 69 -48
l52 -49 -37 -22 c-20 -12 -39 -33 -42 -47 -3 -13 -10 -21 -15 -18 -5 3 -12 -1
-15 -9 -3 -8 -26 -20 -52 -27 -26 -7 -51 -17 -56 -21 -6 -5 -18 -9 -28 -9 -10
0 -18 -4 -18 -9 0 -13 -32 -23 -42 -13 -6 6 -3 25 7 48 31 71 53 175 44 206
-4 16 -5 36 -2 44 8 20 63 17 93 -6z m-550 -90 c0 -5 21 -22 47 -39 l46 -31
-44 6 c-28 4 -50 14 -61 27 -22 28 -24 59 -3 51 8 -4 15 -10 15 -14z m2637
-26 c-3 -3 -12 -4 -19 -1 -8 3 -5 6 6 6 11 1 17 -2 13 -5z m23 -66 c0 -18 -2
-20 -9 -8 -6 8 -7 18 -5 22 9 14 14 9 14 -14z m-2530 -78 c0 -5 9 -12 20 -15
11 -4 18 -10 15 -15 -3 -4 1 -13 9 -19 25 -21 47 -108 40 -156 -4 -29 -2 -45
5 -45 6 0 11 -7 11 -15 0 -8 5 -15 10 -15 6 0 10 -7 10 -15 0 -8 -4 -15 -10
-15 -5 0 -10 5 -10 11 0 7 -31 42 -70 79 -58 56 -72 75 -83 118 -7 28 -11 69
-9 90 4 40 4 40 33 30 16 -5 29 -14 29 -18z m2990 -521 c0 -11 -4 -17 -10 -14
-5 3 -10 13 -10 21 0 8 5 14 10 14 6 0 10 -9 10 -21z m30 -27 c0 -15 -2 -15
-10 -2 -13 20 -13 33 0 25 6 -3 10 -14 10 -23z m84 -59 c49 -30 77 -71 105
-160 11 -32 25 -71 32 -88 22 -55 36 -125 23 -125 -18 0 -31 16 -59 75 -16 33
-36 69 -45 80 -9 11 -23 36 -30 55 -8 19 -32 63 -53 97 -22 35 -37 70 -33 78
7 20 8 20 60 -12z m-3869 -113 c4 -6 -6 -10 -22 -9 -25 0 -26 1 -8 9 11 5 21
9 22 9 1 1 5 -3 8 -9z m3955 -305 c0 -14 -8 -29 -20 -35 -11 -6 -20 -17 -20
-24 0 -30 -42 -27 -48 4 -2 8 -8 17 -14 19 -16 5 55 60 80 61 17 0 22 -6 22
-25z m365 -464 c3 -5 -15 -20 -40 -32 l-46 -23 -21 21 -21 21 49 7 c41 6 58 9
71 14 1 1 4 -3 8 -8z m-3375 -260 c5 -11 10 -35 10 -54 0 -32 -2 -35 -40 -41
-40 -6 -59 -29 -90 -111 -16 -41 -2 -28 24 23 33 65 58 87 85 72 12 -6 21 -17
21 -25 0 -7 2 -19 5 -27 3 -7 -6 -25 -20 -40 -26 -28 -32 -48 -15 -48 6 0 10
6 10 14 0 8 6 16 14 19 21 8 33 -93 16 -133 -22 -53 -49 -29 -52 45 -1 47 -2
48 -5 10 -3 -22 1 -57 7 -78 10 -33 9 -43 -6 -65 -10 -16 -19 -22 -22 -14 -2
6 -8 12 -13 12 -5 0 -4 -8 2 -18 15 -24 4 -71 -18 -79 -20 -8 -91 66 -117 120
-38 82 -3 291 62 369 53 63 121 86 142 49z m2914 -20 c49 -46 80 -186 64 -289
-17 -111 -68 -187 -171 -257 -79 -53 -164 -85 -161 -60 7 48 50 168 63 172 26
8 76 36 83 47 16 23 7 28 -14 9 -27 -25 -64 -37 -72 -25 -3 5 1 29 8 53 8 24
17 65 21 91 7 57 17 65 53 43 23 -14 22 -12 -5 13 -53 46 -42 95 23 108 24 4
35 0 58 -23 24 -24 28 -25 25 -8 -5 25 -44 45 -91 45 -35 0 -38 2 -38 29 0 16
5 42 10 57 10 25 13 26 65 22 39 -3 62 -11 79 -27z m841 -1 c3 -5 1 -10 -4
-10 -6 0 -11 5 -11 10 0 6 2 10 4 10 3 0 8 -4 11 -10z m-3670 -525 c12 -39 26
-78 30 -88 7 -17 4 -17 -44 2 -59 22 -101 47 -101 60 0 15 72 102 82 99 6 -2
20 -35 33 -73z m125 8 c0 -5 43 -52 95 -106 52 -54 103 -118 115 -141 23 -49
35 -188 21 -246 -5 -19 -9 -29 -10 -22 -1 8 -7 28 -15 45 -44 102 -59 133 -65
137 -12 8 -61 102 -61 116 0 7 -6 19 -14 26 -7 8 -17 25 -21 38 -4 14 -21 52
-36 84 -16 33 -29 63 -29 68 0 10 20 11 20 1z"/>
<path d="M1075 2567 c-4 -24 -3 -58 2 -77 8 -30 9 -23 10 43 0 42 -2 77 -3 77
-2 0 -6 -19 -9 -43z"/>
<path d="M1100 2446 c0 -16 26 -40 33 -29 2 4 -4 16 -15 26 -13 13 -18 14 -18
3z"/>
<path d="M4111 2675 c1 -19 18 -51 18 -35 0 8 -4 22 -9 30 -5 8 -9 11 -9 5z"/>
<path d="M4111 2494 c0 -11 3 -14 6 -6 3 7 2 16 -1 19 -3 4 -6 -2 -5 -13z"/>
<path d="M4065 2430 c-3 -6 1 -7 9 -4 18 7 21 14 7 14 -6 0 -13 -4 -16 -10z"/>
<path d="M3710 5029 c-15 -4 -18 -7 -8 -8 9 -1 33 -10 52 -22 19 -11 40 -17
47 -14 6 4 15 1 20 -6 7 -12 9 -11 9 1 0 30 -77 62 -120 49z"/>
<path d="M3260 4790 c0 -5 7 -10 16 -10 8 0 12 5 9 10 -3 6 -10 10 -16 10 -5
0 -9 -4 -9 -10z"/>
<path d="M3440 4690 c0 -5 5 -10 11 -10 5 0 7 5 4 10 -3 6 -8 10 -11 10 -2 0
-4 -4 -4 -10z"/>
<path d="M3500 4630 c0 -6 7 -10 15 -10 8 0 15 2 15 4 0 2 -7 6 -15 10 -8 3
-15 1 -15 -4z"/>
<path d="M5078 4482 c-27 -5 -22 -19 12 -31 26 -9 30 -8 30 8 0 21 -16 29 -42
23z"/>
<path d="M3735 4450 c3 -5 8 -10 11 -10 2 0 4 5 4 10 0 6 -5 10 -11 10 -5 0
-7 -4 -4 -10z"/>
<path d="M3805 4360 c3 -5 8 -10 11 -10 2 0 4 5 4 10 0 6 -5 10 -11 10 -5 0
-7 -4 -4 -10z"/>
<path d="M4351 4334 c0 -11 3 -14 6 -6 3 7 2 16 -1 19 -3 4 -6 -2 -5 -13z"/>
<path d="M4370 4335 c0 -17 30 -35 59 -35 29 0 26 13 -8 33 -36 21 -51 22 -51
2z"/>
<path d="M4357 3990 c5 -18 15 -24 36 -21 4 0 7 -4 7 -11 0 -6 2 -9 5 -6 3 3
0 17 -6 32 -15 31 -50 37 -42 6z"/>
<path d="M1635 3938 c-7 -38 -25 -321 -25 -418 -4 -665 -3 -630 -17 -611 -7 9
-13 25 -13 37 0 24 -22 74 -32 74 -18 0 -2 -144 22 -205 4 -11 18 -60 31 -109
26 -98 86 -227 108 -234 10 -3 6 9 -11 39 -53 92 -74 274 -69 587 1 95 4 183
7 195 2 12 8 67 14 122 13 124 20 165 30 165 4 0 11 -16 15 -36 11 -60 25 -26
32 80 3 53 9 93 13 89 4 -4 15 -29 24 -55 24 -66 38 -61 31 10 -4 41 -3 53 4
42 6 -8 11 -21 11 -29 0 -8 11 -37 24 -66 41 -86 67 -156 61 -166 -4 -5 -17
-9 -30 -9 -13 0 -26 -3 -28 -8 -3 -4 9 -7 26 -7 27 0 32 -4 39 -35 5 -19 16
-41 23 -49 11 -12 15 -8 20 23 4 20 13 36 21 36 19 0 55 -42 50 -57 -3 -7 -2
-13 3 -13 4 0 13 -11 19 -25 15 -32 3 -39 -56 -30 -36 5 -44 4 -35 -5 6 -7 30
-11 57 -9 25 2 47 1 48 -2 4 -8 90 -50 95 -46 6 7 -29 97 -38 97 -5 0 -9 9 -9
20 0 11 -4 20 -8 20 -4 0 -8 16 -9 35 -1 20 -6 41 -11 48 -11 13 -48 132 -63
207 -6 25 -14 53 -19 62 -6 10 -10 23 -10 30 0 18 -43 108 -51 108 -12 0 -15
-74 -8 -180 4 -52 4 -99 1 -104 -7 -12 -54 106 -48 121 3 7 1 13 -4 13 -6 0
-10 6 -10 14 0 19 -41 118 -55 134 -18 20 -38 -36 -34 -92 5 -61 -7 -48 -16
17 -9 66 -24 87 -40 57 -10 -19 -14 -12 -35 64 -12 47 -26 86 -30 86 -4 0 -11
-15 -15 -32z m352 -446 c14 -41 22 -76 20 -79 -3 -3 -18 1 -34 9 -23 11 -28
21 -31 53 -3 49 10 139 16 110 2 -11 15 -53 29 -93z"/>
<path d="M4420 3934 c0 -8 5 -12 10 -9 6 4 8 11 5 16 -9 14 -15 11 -15 -7z"/>
<path d="M4401 3914 c0 -11 3 -14 6 -6 3 7 2 16 -1 19 -3 4 -6 -2 -5 -13z"/>
<path d="M4440 3911 c0 -14 26 -32 54 -37 20 -3 24 -1 20 11 -4 8 -12 15 -20
15 -8 0 -14 5 -14 10 0 6 -9 10 -20 10 -11 0 -20 -4 -20 -9z"/>
<path d="M3508 3894 c-3 -5 -9 -52 -13 -105 -9 -135 -24 -152 -40 -47 -14 93
-37 90 -43 -5 -4 -62 -22 -106 -22 -54 0 15 -4 27 -10 27 -5 0 -10 8 -10 19 0
32 -22 81 -36 81 -8 0 -14 -10 -14 -22 0 -34 -51 -220 -71 -257 l-18 -34 -9
24 c-5 13 -11 33 -13 44 -3 11 -11 20 -19 20 -10 0 -18 -21 -26 -70 -7 -38
-17 -90 -24 -114 l-11 -44 -25 36 c-13 20 -24 40 -24 45 0 9 -59 103 -71 112
-3 3 -9 12 -12 20 -4 12 -6 11 -6 -2 -1 -19 -31 -26 -31 -8 0 14 -42 70 -52
70 -4 0 -8 -12 -8 -28 0 -62 -95 -392 -113 -392 -4 0 -13 12 -20 28 -6 15 -14
29 -17 32 -3 3 -11 17 -17 33 -20 44 -32 32 -35 -35 l-3 -63 -40 60 c-22 33
-43 62 -48 63 -4 2 -17 22 -28 43 -11 22 -28 48 -37 57 -10 10 -29 35 -42 57
-23 37 -48 68 -97 122 -13 13 -23 28 -23 33 0 6 -4 10 -8 10 -5 0 -14 12 -21
27 -8 16 -15 23 -22 16 -6 -6 0 -36 16 -84 14 -41 27 -83 30 -94 27 -136 31
-164 18 -151 -5 4 -15 24 -23 44 -16 39 -54 110 -95 177 -13 22 -31 55 -40 73
-8 17 -20 32 -25 32 -6 0 -10 7 -10 15 0 8 -11 17 -24 21 -13 3 -34 19 -47 35
-29 38 -54 39 -44 2 8 -33 14 -101 19 -208 4 -88 31 -261 45 -297 5 -13 12
-40 16 -60 4 -24 11 -38 21 -38 11 0 13 7 8 26 -6 21 -4 25 7 19 9 -6 9 -2 -2
11 -22 26 -34 64 -19 64 12 0 68 -39 110 -77 27 -25 17 -29 -26 -13 -51 20
-34 3 30 -29 54 -28 65 -38 75 -70 6 -21 11 -53 11 -71 0 -18 3 -30 7 -26 36
36 53 270 30 411 -16 100 -18 100 53 -12 72 -114 157 -287 189 -382 36 -108
91 -355 92 -415 l0 -41 15 40 c8 22 19 78 23 125 5 47 18 111 30 142 11 32 21
64 21 73 0 22 15 18 28 -7 9 -20 11 -18 11 22 2 99 19 164 51 192 16 15 30 31
30 35 0 5 11 13 25 20 20 9 25 8 25 -2 0 -7 -6 -16 -12 -18 -7 -3 -4 -6 7 -6
11 0 27 4 35 9 13 9 13 11 0 21 -11 8 -12 12 -2 16 6 2 10 9 6 14 -3 5 1 9 9
9 10 0 17 -16 22 -47 4 -27 10 -42 12 -35 3 6 9 12 15 12 7 0 9 -15 5 -40 -3
-22 -4 -40 -2 -40 7 0 55 90 55 103 0 18 54 42 75 34 8 -4 21 -22 29 -42 17
-41 42 -49 32 -10 -7 29 8 33 36 8 10 -9 18 -11 18 -6 0 6 -7 16 -15 23 -21
17 -19 50 3 51 14 0 13 2 -4 9 -20 8 -34 45 -34 91 0 18 36 33 105 43 17 3 0
3 -37 1 -43 -2 -68 1 -71 9 -2 6 7 49 19 96 13 47 24 95 24 107 0 49 19 30 26
-27 4 -37 11 -59 18 -57 13 4 45 142 39 168 -3 10 -1 19 5 19 12 0 22 -31 54
-172 12 -54 24 -98 28 -98 9 0 20 52 20 99 1 29 3 33 11 19 15 -27 49 -444 49
-608 0 -80 -5 -174 -11 -209 -11 -68 -42 -154 -67 -184 -8 -9 -13 -20 -10 -23
9 -8 42 44 68 104 12 28 26 52 31 52 5 0 9 9 9 21 0 11 5 17 10 14 6 -3 10 4
10 17 0 13 7 36 16 53 8 16 17 50 20 75 5 42 4 44 -10 26 -9 -11 -16 -28 -16
-38 0 -10 -4 -18 -10 -18 -5 0 -10 -7 -10 -17 0 -9 -3 -14 -6 -10 -3 3 -8 106
-9 229 -2 123 -6 234 -9 248 -3 14 -7 117 -9 230 -3 113 -9 223 -15 245 -6 22
-13 52 -16 66 -7 32 -41 76 -48 63z m-1328 -361 c0 -6 4 -13 8 -15 18 -7 90
-117 111 -171 36 -91 51 -147 40 -147 -13 0 -161 103 -176 122 -17 21 -31 97
-38 203 l-7 100 31 -40 c17 -22 31 -45 31 -52z m802 -178 c12 -22 24 -55 29
-73 6 -29 3 -37 -27 -66 -19 -19 -44 -36 -56 -39 -20 -6 -20 -3 -14 46 3 29 9
88 13 131 7 87 11 87 55 1z m74 -82 c-4 -9 -9 -13 -13 -9 -9 9 -13 58 -6 70 9
14 26 -41 19 -61z"/>
<path d="M4504 3833 c2 -10 9 -18 17 -18 7 0 15 8 17 18 2 11 -3 17 -16 17
-14 0 -19 -6 -18 -17z"/>
<path d="M4578 3815 c-13 -13 5 -55 23 -55 11 0 19 -4 19 -9 0 -11 35 -20 58
-14 12 3 19 15 20 38 3 43 -7 49 -52 30 -33 -14 -37 -14 -42 0 -6 15 -16 19
-26 10z"/>
<path d="M1780 3407 c-28 -25 -64 -77 -58 -83 3 -2 26 21 52 51 48 56 51 72 6
32z"/>
<path d="M3440 3381 c0 -5 7 -14 15 -21 19 -15 65 -98 65 -116 0 -8 7 -14 15
-14 20 0 5 37 -43 106 -35 51 -52 65 -52 45z"/>
<path d="M1700 3285 c-16 -31 -10 -38 21 -26 18 8 20 10 6 10 -14 1 -17 6 -12
21 9 28 1 25 -15 -5z"/>
<path d="M1780 3280 c-21 -7 -21 -8 -5 -9 11 0 27 4 35 9 18 11 5 11 -30 0z"/>
<path d="M3480 3250 c0 -5 5 -10 11 -10 5 0 7 5 4 10 -3 6 -8 10 -11 10 -2 0
-4 -4 -4 -10z"/>
<path d="M3100 3041 c-51 -16 -137 -61 -157 -83 -19 -21 -41 -98 -28 -98 3 0
24 19 47 42 24 22 71 54 106 71 55 25 72 29 121 24 32 -2 76 -14 99 -25 23
-11 42 -16 42 -12 0 16 -64 58 -113 74 -51 17 -78 19 -117 7z"/>
<path d="M2020 3027 c-50 -14 -120 -53 -120 -68 0 -12 -4 -12 60 11 71 26 135
25 207 -1 63 -24 143 -74 143 -90 0 -6 4 -8 10 -4 5 3 7 11 5 18 -2 7 -6 24
-9 39 -5 20 -19 34 -54 52 -95 47 -174 61 -242 43z"/>
<path d="M3074 2934 c-29 -14 -64 -60 -64 -84 0 -6 14 -23 30 -37 17 -13 30
-31 30 -39 0 -19 -37 -36 -62 -28 -20 6 -21 4 -15 -56 4 -50 11 -68 33 -91 52
-55 144 -58 191 -7 68 75 48 274 -34 338 -30 24 -67 25 -109 4z m130 -250 c32
-32 8 -93 -45 -109 -55 -18 -131 29 -115 70 5 14 9 14 35 0 17 -8 41 -15 56
-15 22 0 25 4 25 35 0 39 17 46 44 19z"/>
<path d="M2065 2901 c-30 -18 -65 -61 -65 -80 0 -5 12 -16 27 -23 29 -14 46
-48 33 -67 -4 -7 -23 -13 -43 -13 -44 0 -50 -14 -32 -76 45 -152 236 -150 264
3 17 94 -25 241 -76 264 -35 16 -74 13 -108 -8z m140 -257 c14 -22 15 -30 5
-49 -34 -63 -149 -57 -157 8 -4 28 -3 29 29 22 18 -4 35 -7 38 -7 21 -1 29 5
34 27 8 32 29 32 51 -1z"/>
<path d="M2573 2509 c-18 -5 -33 -14 -33 -20 0 -6 7 -6 19 1 35 18 119 12 141
-10 14 -14 20 -16 20 -6 0 15 -69 47 -98 45 -9 0 -32 -5 -49 -10z"/>
<path d="M3130 2510 l-125 -5 72 -8 c72 -9 185 -2 212 13 9 5 6 7 -10 6 -13 0
-80 -3 -149 -6z"/>
<path d="M3459 2497 c-56 -47 -68 -56 -103 -72 -19 -9 -61 -25 -93 -35 l-58
-19 40 0 c22 0 49 6 59 14 11 8 27 15 36 15 9 0 27 9 40 20 13 11 26 20 29 20
4 0 26 18 50 40 45 42 45 55 0 17z"/>
<path d="M1931 2506 c17 -19 153 -34 227 -24 42 5 78 11 81 14 2 2 -56 4 -130
4 -74 0 -145 3 -159 7 -14 3 -22 3 -19 -1z"/>
<path d="M2677 2443 c-4 -3 -7 -11 -7 -17 0 -6 5 -5 12 2 6 6 9 14 7 17 -3 3
-9 2 -12 -2z"/>
<path d="M1635 2421 c-3 -5 -1 -12 5 -16 5 -3 26 -32 47 -63 20 -31 41 -63 46
-70 7 -9 6 -11 -7 -6 -28 11 -17 -10 29 -56 25 -24 45 -40 45 -34 0 5 -4 14
-9 19 -11 12 -91 165 -91 175 0 4 15 5 33 3 l32 -4 -35 17 c-19 10 -38 18 -42
18 -4 1 -13 7 -19 14 -15 14 -26 15 -34 3z"/>
<path d="M3410 2410 c0 -6 -14 -17 -31 -24 -28 -12 -29 -14 -10 -19 20 -5 20
-7 7 -39 -18 -43 -25 -83 -30 -188 l-5 -85 9 70 c5 39 11 88 14 110 5 47 31
110 57 144 18 23 18 41 -2 41 -5 0 -9 -5 -9 -10z"/>
<path d="M1810 2396 c28 -17 60 -22 45 -7 -6 5 -23 12 -40 16 l-30 6 25 -15z"/>
<path d="M1880 2371 c0 -6 -19 -12 -42 -14 -42 -3 -42 -4 8 -5 60 -2 114 7
114 19 0 5 -18 9 -40 9 -22 0 -40 -4 -40 -9z"/>
<path d="M2248 1633 c7 -3 16 -2 19 1 4 3 -2 6 -13 5 -11 0 -14 -3 -6 -6z"/>
<path d="M2120 1210 c0 -6 52 -10 142 -10 136 0 143 -1 205 -30 81 -38 90 -38
28 1 -57 36 -55 36 -237 43 -91 4 -138 3 -138 -4z"/>
<path d="M2798 1189 c-51 -26 -80 -49 -62 -49 3 0 31 14 60 31 48 27 66 31
171 38 l118 8 -116 0 c-107 0 -119 -2 -171 -28z"/>
<path d="M3123 1213 c15 -2 37 -2 50 0 12 2 0 4 -28 4 -27 0 -38 -2 -22 -4z"/>
<path d="M3736 598 c-3 -24 -8 -63 -11 -88 -3 -27 1 -77 10 -120 9 -41 19
-115 23 -165 4 -64 8 -80 12 -55 3 19 -1 82 -9 140 -7 58 -13 156 -12 218 2
114 -4 146 -13 70z"/>
<path d="M1422 575 c0 -16 2 -22 5 -12 2 9 2 23 0 30 -3 6 -5 -1 -5 -18z"/>
<path d="M1436 520 c4 -14 7 -77 6 -140 0 -106 0 -110 8 -50 5 36 13 93 18
127 5 36 5 60 0 57 -5 -4 -16 2 -24 12 -15 18 -15 18 -8 -6z"/>
<path d="M1434 115 c0 -66 1 -92 3 -57 2 34 2 88 0 120 -2 31 -3 3 -3 -63z"/>
<path d="M1768 8 c-8 -4 4 -8 30 -8 23 0 42 2 42 4 0 8 -60 12 -72 4z"/>
</g>
</svg>
